<?xml version="1.0" encoding="utf-8"?>
<!DOCTYPE svg PUBLIC "-//W3C//DTD SVG 1.0//EN" "http://www.w3.org/TR/2001/REC-SVG-20010904/DTD/svg10.dtd">
<svg xmlns="http://www.w3.org/2000/svg" xmlns:xlink="http://www.w3.org/1999/xlink" version="1.0" x="0px" y="0px" width="512px" height="512px" viewBox="0 0 512 512" enable-background="new 0 0 512 512" xml:space="preserve">
	<g>
		<g id="FACE">
			<path fill="#FFCFAC" stroke="#000000" stroke-width="4.0626" stroke-miterlimit="10" d="M225.647,129.691 c0,0-7.22,2.708-6.319,21.667c0,0-0.227,11.06,6.319,26.181l1.354,2.031v33.404l-22.344,16.7l50.558,104.952l119.393-83.51 c0,0-32.95-35.886-31.823-39.271c1.13-3.386,4.515-13.767,4.515-13.767s11.964-5.191,16.25-12.414 c4.288-7.222,9.479-16.702,9.931-24.602c0.451-7.899-2.482-13.315-6.771-13.09s-7.448,1.354-7.448,1.354l4.288-24.149 c0,0,3.837-41.303-21.441-61.841c-19.207-15.607-29.793-15.799-63.872-12.188c-22.783,2.414-37.916,21.216-39.947,37.015 c-2.032,15.798-4.74,42.431-4.74,42.431S228.809,129.014,225.647,129.691z"/>
			<g>
				<path id="_x3C_Path_x3E__1_" fill="#FFF1EB" d="M334.69,102.313l-7.288,23.801c0,0,9.879,2.866,7.288,15.699 c-1.147,5.684-9.5,46.481-13.75,50.116l6,7.71c0,0,11.08-4.963,15.372-20.683s5.303-21.078,5.303-21.078l0.955-43.244 L334.69,102.313z"/>
				<path fill="#FFF1EB" d="M360.472,155.707c0,0,9.219,2.856,6.219,11.106s-5.25,13.731-8,16.616s-9.814,6.914-9.814,6.914 l-1.577,7.735c0,0,10.989-1.965,17.089-13.837s12.648-24.878,6.101-34.694c0,0-7.02-3.86-8.645-0.917L360.472,155.707z"/>
				<path fill="#FFF1EB" d="M229.69,131.025c0,0-5.084-2.669-7.016,1.527s-7.801,12.077-1.737,30.793s4.71,14.193,4.71,14.193 l1.354-4.739c0,0-3.847-14.362-3.847-22.695c0-8.839,1.374-17.125,6.536-15.292V131.025z"/>
				<path fill="#FFF1EB" d="M257.215,196.657c0,0-1.524,12.519,2.726,14.212s-14.347-1.937-12.686-9.307s1.661-7.37,1.661-7.37 L257.215,196.657z"/>
				<path fill="#FFF1EB" d="M300.828,204.087c0,0-0.171,8.976-9.529,10.476s21.476,0.523,22.274-1.588s0.641-9.356-1.742-10.053 S300.828,204.087,300.828,204.087z"/>
				<path fill="#FFF1EB" d="M259.94,96.182L256,114.563l-3.979,5l-1.528,7.908c0,0-9.553,49.188-8.303,53.265l-7.62,2.693 c0,0,0.985-32.899,8.303-57.132s9.148-29.233,9.148-29.233L259.94,96.182z"/>
			</g>
			<g>
				<path stroke="#000000" stroke-width="6.7709" stroke-miterlimit="10" d="M307.375,117.314c0,0,15.742,1.016,24.205,13.711"/>
				<path stroke="#000000" stroke-width="6.7709" stroke-miterlimit="10" d="M252.021,117.314c0,0,19.299,1.523,25.561,10.156"/>
				<path fill="none" stroke="#000000" stroke-width="2.7084" stroke-miterlimit="10" d="M307.375,199.638 c0,0,6.658,3.384,5.529,6.544"/>
				<path fill="none" stroke="#000000" stroke-width="4.0626" stroke-miterlimit="10" d="M225.647,129.691 c0,0-7.22,2.708-6.319,21.667c0,0-0.227,11.06,6.319,26.181l1.354,2.031v33.404l-22.344,16.7l50.558,104.952l119.393-83.51 c0,0-32.95-35.886-31.823-39.271c1.13-3.386,4.515-13.767,4.515-13.767s11.964-5.191,16.25-12.414 c4.288-7.222,9.479-16.702,9.931-24.602c0.451-7.899-2.482-13.315-6.771-13.09s-7.448,1.354-7.448,1.354l4.288-24.149 c0,0,3.837-41.303-21.441-61.841c-19.207-15.607-29.793-15.799-63.872-12.188c-22.783,2.414-37.916,21.216-39.947,37.015 c-2.032,15.798-4.74,42.431-4.74,42.431S228.809,129.014,225.647,129.691z"/>
				<path fill="none" stroke="#000000" stroke-width="4.0626" stroke-miterlimit="10" d="M227.001,203.716 c0,0,11.311,30.243,23.922,48.75c9.012,11.286,25.806,12.087,39.029,4.515c14.764-8.455,36.481-22.458,48.243-34.549"/>
			</g>
		</g>
		<g id="HAIR">
			<path fill="#4E2616" d="M367.19,82.472c-12.526-40.287-43.335-33.516-43.335-33.516 c-11.51-10.833-31.484-9.818-31.484-9.818c-47.734,1.693-68.725,56.852-68.725,56.852l9.902,0.192l-4.113,63.267 c0,0-2.851,36.876-2.677,42.462c0.176,5.586,14.998,41.979,26.632,53.039c8.672,8.241,26.346,7.071,34.692,3.027 c32.792-15.893,48.802-34.67,48.802-34.67l13.379-41.123c0,0,12.526-37.758,16.927-53.331 C371.591,113.279,367.19,82.472,367.19,82.472z M314.641,209.553c-1.02,9.028-19.709,23.924-27.518,20.313 c-7.811-3.611-6.681-11.059-6.681-12.414l-12.961-3.604c0,0-3.289,11.955-10.286,7.667c-6.996-4.289-12.612-8.903-9.453-27.185 c0.415-2.396,40.148,16.577,59.108,8C306.851,202.331,315.659,200.524,314.641,209.553z M348.232,150.858 c0,10.156-5.078,24.714-5.078,24.714c-5.03,22.943-17.516,22.414-17.516,22.414c-4.299-8.125-23.924-9.365-31.823-9.14 c-7.897,0.226-22.345-1.014-31.146-4.91s-28.099-0.508-28.099-0.508l1.41-29.434l14.513-58.319c0,0,63.639-6.204,68.624-5.078 c12.031,2.718,29.453,24.037,29.453,24.037S348.232,140.702,348.232,150.858z"/>
			<g>
				<path fill="#7A441C" d="M323.855,51.063c0,0-43.566-12.489-63.915,12.417c-11.166,13.667-19.166,24-19.166,24l73.232,1.452 c0,0-81.488,9.57-90.36,7.059c0,0,10.41-34.641,43.941-51.604C296.396,29.813,323.855,51.063,323.855,51.063z"/>
				<path fill="#7A441C" d="M259.835,183c0,0-9.128,9.222-5.974,12.662c0,0-13.179-11.849-15.55-0.349s5.949,34.25,12.289,47.25 s9.973,18.535,9.973,18.535s-35.332-30.193-33.232-72.114s5.81-86.671,5.81-86.671h4.795l-4.015,58.256l0.64,22.86 C234.57,183.428,249.371,179.583,259.835,183z"/>
				<path fill="#7A441C" d="M274.274,261.847c0,0,46.112-34.839,40.473-58.937c0,0-6.308-1.29-13.974,0.806 c0,0,1.626-11.878-2.666-13.374s24.101-0.212,26.217,9.296c0,0,15.5,0.64,22.975-40.259s-1.858-49.754-1.858-49.754 l15.031,12.768c0,0,7.566-29.913-4.232-51.247s-26.548-23.144-29.466-22.667s38.494-4.72,41.333,45.667 c2.667,47.333-20.245,86.738-20.808,96.196s-10.245,32.804-15.719,39.804S282.866,262.379,274.274,261.847z"/>
			</g>
			<g>
				<path id="Line_11_" fill="none" stroke="#000000" stroke-width="4.0626" stroke-miterlimit="10" d="M367.19,82.472 c-12.526-40.287-43.335-33.516-43.335-33.516c-11.51-10.833-31.484-9.818-31.484-9.818 c-47.734,1.693-68.725,56.852-68.725,56.852l9.902,0.192l-4.113,63.267c0,0-2.851,36.876-2.677,42.462 c0.176,5.586,14.998,41.979,26.632,53.039c8.672,8.241,26.346,7.071,34.692,3.027c32.792-15.893,48.802-34.67,48.802-34.67 l13.379-41.123c0,0,12.526-37.758,16.927-53.331C371.591,113.279,367.19,82.472,367.19,82.472z M314.641,209.553 c-1.02,9.028-19.709,23.924-27.518,20.313c-7.811-3.611-6.681-11.059-6.681-12.414l-12.961-3.604c0,0-3.289,11.955-10.286,7.667 c-6.996-4.289-12.612-8.903-9.453-27.185c0.415-2.396,40.148,16.577,59.108,8C306.851,202.331,315.659,200.524,314.641,209.553z  M348.232,150.858c0,10.156-5.078,24.714-5.078,24.714c-5.03,22.943-17.516,22.414-17.516,22.414 c-4.299-8.125-23.924-9.365-31.823-9.14c-7.897,0.226-22.345-1.014-31.146-4.91s-28.099-0.508-28.099-0.508l1.41-29.434 l14.513-58.319c0,0,63.639-6.204,68.624-5.078c12.031,2.718,29.453,24.037,29.453,24.037S348.232,140.702,348.232,150.858z"/>
				<path id="Line_10_" fill="#84513D" stroke="#000000" stroke-width="4.0626" stroke-miterlimit="10" d="M250.493,95.675 c-13.04,1.232-25.096-0.169-25.096-0.169"/>
			</g>
		</g>
		<g id="GLASSES">
			<g id="lenses">
				<path fill="#FFFFFF" stroke="#000000" stroke-width="3.926" stroke-miterlimit="10" d="M337.505,161.741 c-0.703,8.246-7.797,14.375-15.845,13.689l-17.002-1.447c-8.05-0.686-14.004-7.925-13.304-16.17l0.634-7.465 c0.705-8.245,7.796-14.374,15.847-13.688l17.001,1.447c8.048,0.685,14.006,7.924,13.304,16.169L337.505,161.741z"/>
				<path fill="#FFFFFF" stroke="#000000" stroke-width="3.926" stroke-miterlimit="10" d="M277.732,155.705 c-0.871,8.23-8.087,14.213-16.12,13.364l-16.97-1.793c-8.033-0.849-13.841-8.208-12.97-16.438l0.785-7.449 c0.871-8.23,8.088-14.213,16.121-13.364l16.969,1.793c8.033,0.849,13.841,8.208,12.971,16.438L277.732,155.705z"/>
			</g>
			<g id="Shade">
				<path fill="#AACCCE" d="M232.177,146.061c0,0,4.389-7.231,12.014-8.186c7.224-0.905,18.531-0.242,25.5,3.625 c5.605,3.11,8.896,6.106,8.701,7.959s2.752-17.769-17.049-18.086s-20.893-1.76-23.397,1.839S232.521,142.794,232.177,146.061z"/>
				<path fill="#AACCCE" d="M291.613,153.383c0,0,4.389-7.231,12.014-8.186c7.224-0.905,18.531-0.242,25.5,3.625 c5.605,3.11,8.896,6.106,8.701,7.959s2.752-17.769-17.049-18.086s-20.893-1.76-23.397,1.839S291.958,150.116,291.613,153.383z"/>
			</g>
			<g id="frames">				
				<line fill="#FFFFFF" stroke="#000000" stroke-width="4.5468" stroke-miterlimit="10" x1="278.258" y1="148.629" x2="291.988" y2="150.348"/>
				<line fill="#FFFFFF" stroke="#000000" stroke-width="4.0626" stroke-miterlimit="10" x1="337.281" y1="153.12" x2="360.472" y2="150.242"/>
				<path fill="none" stroke="#000000" stroke-width="3.926" stroke-miterlimit="10" d="M337.505,161.741 c-0.703,8.246-7.797,14.375-15.845,13.689l-17.002-1.447c-8.05-0.686-14.004-7.925-13.304-16.17l0.634-7.465 c0.705-8.245,7.796-14.374,15.847-13.688l17.001,1.447c8.048,0.685,14.006,7.924,13.304,16.169L337.505,161.741z"/>
				<path fill="none" stroke="#000000" stroke-width="3.926" stroke-miterlimit="10" d="M277.732,155.705 c-0.871,8.23-8.087,14.213-16.12,13.364l-16.97-1.793c-8.033-0.849-13.841-8.208-12.97-16.438l0.785-7.449 c0.871-8.23,8.088-14.213,16.121-13.364l16.969,1.793c8.033,0.849,13.841,8.208,12.971,16.438L277.732,155.705z"/>
				<g id="eyes">
					<circle cx="318.078" cy="149.459" r="6.247"/>
					<circle cx="261.342" cy="143.213" r="6.246"/>
				</g>
			</g>
		</g>
		<g id="SHIRT">
			<path fill="#781214" stroke="#000000" stroke-width="4" stroke-miterlimit="10" d="M227.001,212.974 l-80.437,55.163c0,0-13.541,136.772-14.218,137.11c-0.678,0.34,119.506,57.554,119.506,57.554l190.263-58.568V301.313 l-99.331-89.469l-14.759,28.87c0,0-20.65,44.01-56.904,39.783c-25.274-2.948-30.428-13.234-35.519-25.564 c-4.843-11.729-6.094-28.438-6.094-28.438L227.001,212.974z"/>
			<path fill="none" stroke="#000000" stroke-width="3" stroke-miterlimit="10" d="M214.274,222.433c0,0,6.837,42.299,14.558,51.798 c5.24,6.447,16.249,18.958,34.532,22.344c21.14,3.914,41.9-3.119,51.379-12.26c9.479-9.141,25.348-31.073,39.798-61.882"/>
		</g>
		<g id="JACKET">
			<g id="JacketFills">
				<polygon fill="#A5A9AF" points="342.784,211.845 297.848,293.988 278.258,454.673 442.115,404.232 442.115,301.313 "/>
				<polygon fill="#A5A9AF" points="227.001,212.974 238.312,281.753 218.22,446.762 132.347,405.247 146.564,268.137 "/>
				<path fill="#A5A9AF" d="M356.239,223.962l-7.223,80.061c0,0-35.16-5.47-35.16-4.454s31.437,16.98,31.437,16.98l-36.759,128.807 l-30.276,9.317l19.59-160.685l45.261-83.119L356.239,223.962z"/>
				<polygon fill="#A5A9AF" points="228.053,212.71 239.362,281.489 224.783,449.896 200.238,438.069 198.363,299.621  220.625,288.608 198.363,286.418 211.566,222.433 "/>
			</g>
			<g id="JacketHighlights">
				<polygon fill="#C9D9E2" points="334.755,230.146 420.44,317.813 423.804,409.869 442.115,404.232 442.115,301.313  343.013,212.974 "/>
			</g>
			<g id="JacketLines">
				<polygon fill="none" stroke="#000000" stroke-width="4" stroke-miterlimit="10" points="342.784,211.845 297.848,293.988 278.258,454.673 442.115,404.232 442.115,301.313 "/>
				<polygon fill="none" stroke="#000000" stroke-width="4" stroke-miterlimit="10" points="227.001,212.974 238.312,281.753  224.783,449.896 132.347,405.247 146.564,268.137 "/>
				<path fill="none" stroke="#000000" stroke-width="4" stroke-miterlimit="10" d="M356.239,223.962l-7.223,80.061 c0,0-35.16-5.47-35.16-4.454s31.437,16.98,31.437,16.98l-36.759,128.807l-30.276,9.317l19.59-160.685l45.261-83.119 L356.239,223.962z"/>
				<polygon fill="none" stroke="#000000" stroke-width="4" stroke-miterlimit="10" points="228.053,212.71 239.362,281.489  224.783,449.896 200.238,438.069 198.363,299.621 220.625,288.608 198.363,286.418 211.566,222.433 "/>
				<line stroke="#000000" stroke-width="4" stroke-miterlimit="10" x1="378.903" y1="423.691" x2="373.212" y2="359.744"/>
			</g>
		</g>
		<g id="TABLET">
			<path stroke="#000000" stroke-width="4.0626" stroke-miterlimit="10" d="M263.79,314.94c4.459,7.788,1.761,17.718-6.028,22.176 l-97.54,55.85c-7.79,4.458-17.72,1.76-22.179-6.028L66.215,261.484c-4.458-7.787-1.761-17.717,6.028-22.176l97.541-55.848 c7.789-4.459,17.716-1.761,22.177,6.028L263.79,314.94z"/>			
			<rect x="97.378" y="212.808" transform="matrix(0.868 -0.4966 0.4966 0.868 -118.7971 117.2011)" fill="#FFFFFF" stroke="#000000" stroke-width="2.7084" stroke-miterlimit="10" width="127.256" height="138.397"/>
		</g>
		<g id="HAND">
			<path fill="#FFCFAC" d="M123.832,370.352c5.643-5.417,34.333-13.624,46.494-9.479 c9.931,3.385,6.095,13.767,1.201,15.574c-6.628,2.448-23.69,4.456-28.357,6.742c-4.666,2.283-4.215,6.797-4.215,6.797 s18.959-7.672,24.148-8.35c5.192-0.677,6.319-3.16,8.577-0.452c2.256,2.709,12.641,18.281,12.413,25.052 c-0.225,6.771-0.45,18.058-8.803,26.183c-8.35,8.125-33.628,6.771-41.076,0s-18.282-23.474-16.702-38.144 C119.092,379.605,118.19,375.768,123.832,370.352z"/>
			<path fill="#FFF1EB" d="M139.69,364.313c0,0-10,7.25-12,15c-2.637,10.216-1,19.567-1,19.567 s4,12.683,9.75,20.183s14.131,14.08,24.565,18.665c0,0-24.224,5.039-33.538-14.165s-11.961-23.8-9.245-36.747 S117.69,369.563,139.69,364.313z"/>
			<path fill="none" stroke="#000000" stroke-width="4.0626" stroke-miterlimit="10" d="M123.832,370.352 c5.643-5.417,34.333-13.624,46.494-9.479c9.931,3.385,6.095,13.767,1.201,15.574c-6.628,2.448-23.69,4.456-28.357,6.742 c-4.666,2.283-4.215,6.797-4.215,6.797s18.959-7.672,24.148-8.35c5.192-0.677,6.319-3.16,8.577-0.452 c2.256,2.709,12.641,18.281,12.413,25.052c-0.225,6.771-0.45,18.058-8.803,26.183c-8.35,8.125-33.628,6.771-41.076,0 s-18.282-23.474-16.702-38.144C119.092,379.605,118.19,375.768,123.832,370.352z"/>
		</g>
		<g id="NOSE">
			<polygon fill="#FFCFAC" points="281.44,170.688 267.588,181.813 275.815,195.313 291.988,186.391    "/>
			<polygon fill="#FFF1EB" points="280.237,169.149 276.555,192.321 268.312,183    "/>
			<polygon stroke="#000000" stroke-width="2.7084" stroke-miterlimit="10" points="267.588,181.31 275.733,196.657 292.886,185.824 276.555,192.321    "/>
		</g>
	</g>
</svg>
